<svg xmlns="http://www.w3.org/2000/svg" viewBox="0 0 120 120">
  <defs><linearGradient id="g2" x1="0" y1="0" x2="1" y2="1"><stop offset="0%" stop-color="#667eea"/><stop offset="100%" stop-color="#764ba2"/></linearGradient></defs>
  <circle cx="60" cy="60" r="60" fill="url(#g2)"/>
  <polygon points="32,46 26,22 50,36" fill="#5a4ea1"/>
  <polygon points="88,46 94,22 70,36" fill="#5a4ea1"/>
  <circle cx="60" cy="64" r="34" fill="#b39ddb"/>
  <circle cx="48" cy="62" r="5" fill="#1a1a2e"/>
  <circle cx="72" cy="62" r="5" fill="#1a1a2e"/>
  <circle cx="49" cy="60" r="1.5" fill="#fff"/>
  <circle cx="73" cy="60" r="1.5" fill="#fff"/>
  <path d="M58 76 Q60 78 62 76" stroke="#1a1a2e" stroke-width="2" fill="none" stroke-linecap="round"/>
  <polygon points="58,72 60,76 62,72" fill="#f48fb1"/>
  <line x1="46" y1="78" x2="36" y2="76" stroke="#1a1a2e" stroke-width="1.5" stroke-linecap="round"/>
  <line x1="46" y1="82" x2="36" y2="82" stroke="#1a1a2e" stroke-width="1.5" stroke-linecap="round"/>
  <line x1="74" y1="78" x2="84" y2="76" stroke="#1a1a2e" stroke-width="1.5" stroke-linecap="round"/>
  <line x1="74" y1="82" x2="84" y2="82" stroke="#1a1a2e" stroke-width="1.5" stroke-linecap="round"/>
</svg>
