<svg xmlns="http://www.w3.org/2000/svg" viewBox="0 0 120 120">
  <defs><linearGradient id="g7" x1="0" y1="0" x2="1" y2="1"><stop offset="0%" stop-color="#ff6b6b"/><stop offset="100%" stop-color="#c92a2a"/></linearGradient></defs>
  <circle cx="60" cy="60" r="60" fill="url(#g7)"/>
  <polygon points="40,28 30,12 50,22" fill="#831a1a"/>
  <polygon points="80,28 90,12 70,22" fill="#831a1a"/>
  <ellipse cx="60" cy="64" rx="34" ry="32" fill="#37b24d"/>
  <ellipse cx="60" cy="62" rx="22" ry="18" fill="#69db7c"/>
  <circle cx="50" cy="58" r="5" fill="#fff"/>
  <circle cx="70" cy="58" r="5" fill="#fff"/>
  <ellipse cx="51" cy="58" rx="2" ry="3.5" fill="#1a1a2e"/>
  <ellipse cx="71" cy="58" rx="2" ry="3.5" fill="#1a1a2e"/>
  <ellipse cx="60" cy="76" rx="14" ry="9" fill="#831a1a"/>
  <path d="M48 80 L52 86 M56 80 L58 86 M62 80 L64 86 M68 80 L72 86" stroke="#fff" stroke-width="1.5" stroke-linecap="round"/>
  <path d="M46 38 L48 32 L42 36 Z" fill="#831a1a"/>
  <path d="M74 38 L72 32 L78 36 Z" fill="#831a1a"/>
</svg>
